<?xml version="1.0" encoding="UTF-8" standalone="no"?>
<!DOCTYPE svg PUBLIC "-//W3C//DTD SVG 1.1//EN"
 "http://www.w3.org/Graphics/SVG/1.1/DTD/svg11.dtd">
<!-- Generated by graphviz version 2.36.0 (20140111.2315)
 -->
<!-- Title: controllers_diagram Pages: 1 -->
<svg width="1038pt" height="947pt"
 viewBox="0.00 0.00 1038.00 947.40" xmlns="http://www.w3.org/2000/svg" xmlns:xlink="http://www.w3.org/1999/xlink">
<g id="graph0" class="graph" transform="scale(1 1) rotate(0) translate(4 943.398)">
<title>controllers_diagram</title>
<polygon fill="none" stroke="none" points="-4,4 -4,-943.398 1034,-943.398 1034,4 -4,4"/>
<!-- _diagram_info -->
<g id="node1" class="node"><title>_diagram_info</title>
<text text-anchor="start" x="824" y="-111.6" font-family="Times,serif" font-size="13.00">Controllers diagram</text>
<text text-anchor="start" x="824" y="-97.6" font-family="Times,serif" font-size="13.00">Date: Apr 24 2016 &#45; 15:14</text>
<text text-anchor="start" x="824" y="-83.6" font-family="Times,serif" font-size="13.00">Migration version: 20160420203038</text>
<text text-anchor="start" x="824" y="-69.6" font-family="Times,serif" font-size="13.00">Generated by RailRoady 1.4.2</text>
<text text-anchor="start" x="824" y="-55.6" font-family="Times,serif" font-size="13.00">http://railroady.prestonlee.com</text>
</g>
<!-- InrRecordsController -->
<g id="node2" class="node"><title>InrRecordsController</title>
<path fill="none" stroke="black" d="M19.8214,-554.118C19.8214,-554.118 127.821,-554.118 127.821,-554.118 133.821,-554.118 139.821,-560.118 139.821,-566.118 139.821,-566.118 139.821,-665.118 139.821,-665.118 139.821,-671.118 133.821,-677.118 127.821,-677.118 127.821,-677.118 19.8214,-677.118 19.8214,-677.118 13.8214,-677.118 7.82142,-671.118 7.82142,-665.118 7.82142,-665.118 7.82142,-566.118 7.82142,-566.118 7.82142,-560.118 13.8214,-554.118 19.8214,-554.118"/>
<text text-anchor="middle" x="73.8214" y="-661.918" font-family="Times,serif" font-size="14.00">InrRecordsController</text>
<polyline fill="none" stroke="black" points="7.82142,-654.118 139.821,-654.118 "/>
<text text-anchor="start" x="15.8214" y="-638.918" font-family="Times,serif" font-size="14.00">create</text>
<text text-anchor="start" x="15.8214" y="-623.918" font-family="Times,serif" font-size="14.00">destroy</text>
<polyline fill="none" stroke="black" points="7.82142,-616.118 139.821,-616.118 "/>
<polyline fill="none" stroke="black" points="7.82142,-592.118 139.821,-592.118 "/>
<text text-anchor="start" x="15.8214" y="-576.918" font-family="Times,serif" font-size="14.00">_layout</text>
<text text-anchor="start" x="15.8214" y="-561.918" font-family="Times,serif" font-size="14.00">create_params</text>
</g>
<!-- ApplicationController -->
<g id="node3" class="node"><title>ApplicationController</title>
<path fill="none" stroke="black" d="M313.03,-446.291C313.03,-446.291 425.03,-446.291 425.03,-446.291 431.03,-446.291 437.03,-452.291 437.03,-458.291 437.03,-458.291 437.03,-527.291 437.03,-527.291 437.03,-533.291 431.03,-539.291 425.03,-539.291 425.03,-539.291 313.03,-539.291 313.03,-539.291 307.03,-539.291 301.03,-533.291 301.03,-527.291 301.03,-527.291 301.03,-458.291 301.03,-458.291 301.03,-452.291 307.03,-446.291 313.03,-446.291"/>
<text text-anchor="middle" x="369.03" y="-524.091" font-family="Times,serif" font-size="14.00">ApplicationController</text>
<polyline fill="none" stroke="black" points="301.03,-516.291 437.03,-516.291 "/>
<text text-anchor="start" x="309.03" y="-501.091" font-family="Times,serif" font-size="14.00">require_init</text>
<polyline fill="none" stroke="black" points="301.03,-493.291 437.03,-493.291 "/>
<polyline fill="none" stroke="black" points="301.03,-469.291 437.03,-469.291 "/>
<text text-anchor="start" x="309.03" y="-454.091" font-family="Times,serif" font-size="14.00">_layout</text>
</g>
<!-- ApplicationController&#45;&gt;InrRecordsController -->
<g id="edge1" class="edge"><title>ApplicationController&#45;&gt;InrRecordsController</title>
<path fill="none" stroke="black" d="M300.933,-521.124C252.574,-541.245 187.986,-568.117 140.052,-588.061"/>
</g>
<!-- DoctorSessionController -->
<g id="node4" class="node"><title>DoctorSessionController</title>
<path fill="none" stroke="black" d="M300.076,-113.235C300.076,-113.235 427.076,-113.235 427.076,-113.235 433.076,-113.235 439.076,-119.235 439.076,-125.235 439.076,-125.235 439.076,-194.235 439.076,-194.235 439.076,-200.235 433.076,-206.235 427.076,-206.235 427.076,-206.235 300.076,-206.235 300.076,-206.235 294.076,-206.235 288.076,-200.235 288.076,-194.235 288.076,-194.235 288.076,-125.235 288.076,-125.235 288.076,-119.235 294.076,-113.235 300.076,-113.235"/>
<text text-anchor="middle" x="363.576" y="-191.035" font-family="Times,serif" font-size="14.00">DoctorSessionController</text>
<polyline fill="none" stroke="black" points="288.076,-183.235 439.076,-183.235 "/>
<text text-anchor="start" x="296.076" y="-168.035" font-family="Times,serif" font-size="14.00">new</text>
<polyline fill="none" stroke="black" points="288.076,-160.235 439.076,-160.235 "/>
<polyline fill="none" stroke="black" points="288.076,-136.235 439.076,-136.235 "/>
<text text-anchor="start" x="296.076" y="-121.035" font-family="Times,serif" font-size="14.00">_layout</text>
</g>
<!-- ApplicationController&#45;&gt;DoctorSessionController -->
<g id="edge2" class="edge"><title>ApplicationController&#45;&gt;DoctorSessionController</title>
<path fill="none" stroke="black" d="M368.266,-446.13C367.227,-382.665 365.378,-269.788 364.339,-206.348"/>
</g>
<!-- DrugPrescriptionsController -->
<g id="node5" class="node"><title>DrugPrescriptionsController</title>
<path fill="none" stroke="black" d="M290.886,-755.276C290.886,-755.276 436.886,-755.276 436.886,-755.276 442.886,-755.276 448.886,-761.276 448.886,-767.276 448.886,-767.276 448.886,-896.276 448.886,-896.276 448.886,-902.276 442.886,-908.276 436.886,-908.276 436.886,-908.276 290.886,-908.276 290.886,-908.276 284.886,-908.276 278.886,-902.276 278.886,-896.276 278.886,-896.276 278.886,-767.276 278.886,-767.276 278.886,-761.276 284.886,-755.276 290.886,-755.276"/>
<text text-anchor="middle" x="363.886" y="-893.076" font-family="Times,serif" font-size="14.00">DrugPrescriptionsController</text>
<polyline fill="none" stroke="black" points="278.886,-885.276 448.886,-885.276 "/>
<text text-anchor="start" x="286.886" y="-870.076" font-family="Times,serif" font-size="14.00">create</text>
<text text-anchor="start" x="286.886" y="-855.076" font-family="Times,serif" font-size="14.00">destroy</text>
<text text-anchor="start" x="286.886" y="-840.076" font-family="Times,serif" font-size="14.00">update</text>
<polyline fill="none" stroke="black" points="278.886,-832.276 448.886,-832.276 "/>
<polyline fill="none" stroke="black" points="278.886,-808.276 448.886,-808.276 "/>
<text text-anchor="start" x="286.886" y="-793.076" font-family="Times,serif" font-size="14.00">_layout</text>
<text text-anchor="start" x="286.886" y="-778.076" font-family="Times,serif" font-size="14.00">create_params</text>
<text text-anchor="start" x="286.886" y="-763.076" font-family="Times,serif" font-size="14.00">update_params</text>
</g>
<!-- ApplicationController&#45;&gt;DrugPrescriptionsController -->
<g id="edge3" class="edge"><title>ApplicationController&#45;&gt;DrugPrescriptionsController</title>
<path fill="none" stroke="black" d="M368.321,-539.569C367.476,-595.238 366.053,-688.972 365.047,-755.248"/>
</g>
<!-- PatientSessionController -->
<g id="node6" class="node"><title>PatientSessionController</title>
<path fill="none" stroke="black" d="M585.168,-794.512C585.168,-794.512 712.168,-794.512 712.168,-794.512 718.168,-794.512 724.168,-800.512 724.168,-806.512 724.168,-806.512 724.168,-875.512 724.168,-875.512 724.168,-881.512 718.168,-887.512 712.168,-887.512 712.168,-887.512 585.168,-887.512 585.168,-887.512 579.168,-887.512 573.168,-881.512 573.168,-875.512 573.168,-875.512 573.168,-806.512 573.168,-806.512 573.168,-800.512 579.168,-794.512 585.168,-794.512"/>
<text text-anchor="middle" x="648.668" y="-872.312" font-family="Times,serif" font-size="14.00">PatientSessionController</text>
<polyline fill="none" stroke="black" points="573.168,-864.512 724.168,-864.512 "/>
<text text-anchor="start" x="581.168" y="-849.312" font-family="Times,serif" font-size="14.00">new</text>
<polyline fill="none" stroke="black" points="573.168,-841.512 724.168,-841.512 "/>
<polyline fill="none" stroke="black" points="573.168,-817.512 724.168,-817.512 "/>
<text text-anchor="start" x="581.168" y="-802.312" font-family="Times,serif" font-size="14.00">_layout</text>
</g>
<!-- ApplicationController&#45;&gt;PatientSessionController -->
<g id="edge4" class="edge"><title>ApplicationController&#45;&gt;PatientSessionController</title>
<path fill="none" stroke="black" d="M406.453,-539.392C459.956,-606.017 557.74,-727.783 611.243,-794.409"/>
</g>
<!-- StaticPagesController -->
<g id="node7" class="node"><title>StaticPagesController</title>
<path fill="none" stroke="black" d="M12,-815.898C12,-815.898 122,-815.898 122,-815.898 128,-815.898 134,-821.898 134,-827.898 134,-827.898 134,-926.898 134,-926.898 134,-932.898 128,-938.898 122,-938.898 122,-938.898 12,-938.898 12,-938.898 6,-938.898 0,-932.898 0,-926.898 0,-926.898 0,-827.898 0,-827.898 0,-821.898 6,-815.898 12,-815.898"/>
<text text-anchor="middle" x="67" y="-923.698" font-family="Times,serif" font-size="14.00">StaticPagesController</text>
<polyline fill="none" stroke="black" points="0,-915.898 134,-915.898 "/>
<text text-anchor="start" x="8" y="-900.698" font-family="Times,serif" font-size="14.00">about</text>
<text text-anchor="start" x="8" y="-885.698" font-family="Times,serif" font-size="14.00">contact</text>
<text text-anchor="start" x="8" y="-870.698" font-family="Times,serif" font-size="14.00">home</text>
<polyline fill="none" stroke="black" points="0,-862.898 134,-862.898 "/>
<polyline fill="none" stroke="black" points="0,-838.898 134,-838.898 "/>
<text text-anchor="start" x="8" y="-823.698" font-family="Times,serif" font-size="14.00">_layout</text>
</g>
<!-- ApplicationController&#45;&gt;StaticPagesController -->
<g id="edge5" class="edge"><title>ApplicationController&#45;&gt;StaticPagesController</title>
<path fill="none" stroke="black" d="M332.298,-539.567C277.903,-608.833 175.87,-738.763 115.426,-815.733"/>
</g>
<!-- DoctorsController -->
<g id="node8" class="node"><title>DoctorsController</title>
<path fill="none" stroke="black" d="M26.3839,-261.758C26.3839,-261.758 117.384,-261.758 117.384,-261.758 123.384,-261.758 129.384,-267.758 129.384,-273.758 129.384,-273.758 129.384,-492.758 129.384,-492.758 129.384,-498.758 123.384,-504.758 117.384,-504.758 117.384,-504.758 26.3839,-504.758 26.3839,-504.758 20.3839,-504.758 14.3839,-498.758 14.3839,-492.758 14.3839,-492.758 14.3839,-273.758 14.3839,-273.758 14.3839,-267.758 20.3839,-261.758 26.3839,-261.758"/>
<text text-anchor="middle" x="71.8839" y="-489.558" font-family="Times,serif" font-size="14.00">DoctorsController</text>
<polyline fill="none" stroke="black" points="14.3839,-481.758 129.384,-481.758 "/>
<text text-anchor="start" x="22.3839" y="-466.558" font-family="Times,serif" font-size="14.00">add_patient</text>
<text text-anchor="start" x="22.3839" y="-451.558" font-family="Times,serif" font-size="14.00">create</text>
<text text-anchor="start" x="22.3839" y="-436.558" font-family="Times,serif" font-size="14.00">delete_patient</text>
<text text-anchor="start" x="22.3839" y="-421.558" font-family="Times,serif" font-size="14.00">destroy</text>
<text text-anchor="start" x="22.3839" y="-406.558" font-family="Times,serif" font-size="14.00">edit</text>
<text text-anchor="start" x="22.3839" y="-391.558" font-family="Times,serif" font-size="14.00">monitor_patient</text>
<text text-anchor="start" x="22.3839" y="-376.558" font-family="Times,serif" font-size="14.00">new</text>
<text text-anchor="start" x="22.3839" y="-361.558" font-family="Times,serif" font-size="14.00">show</text>
<text text-anchor="start" x="22.3839" y="-346.558" font-family="Times,serif" font-size="14.00">update</text>
<polyline fill="none" stroke="black" points="14.3839,-338.758 129.384,-338.758 "/>
<polyline fill="none" stroke="black" points="14.3839,-314.758 129.384,-314.758 "/>
<text text-anchor="start" x="22.3839" y="-299.558" font-family="Times,serif" font-size="14.00">_layout</text>
<text text-anchor="start" x="22.3839" y="-284.558" font-family="Times,serif" font-size="14.00">signup_params</text>
<text text-anchor="start" x="22.3839" y="-269.558" font-family="Times,serif" font-size="14.00">update_params</text>
</g>
<!-- ApplicationController&#45;&gt;DoctorsController -->
<g id="edge6" class="edge"><title>ApplicationController&#45;&gt;DoctorsController</title>
<path fill="none" stroke="black" d="M300.859,-467.662C249.113,-448.588 178.747,-422.65 129.73,-404.581"/>
</g>
<!-- SessionsController -->
<g id="node9" class="node"><title>SessionsController</title>
<path fill="none" stroke="black" d="M603.749,-450.443C603.749,-450.443 698.749,-450.443 698.749,-450.443 704.749,-450.443 710.749,-456.443 710.749,-462.443 710.749,-462.443 710.749,-546.443 710.749,-546.443 710.749,-552.443 704.749,-558.443 698.749,-558.443 698.749,-558.443 603.749,-558.443 603.749,-558.443 597.749,-558.443 591.749,-552.443 591.749,-546.443 591.749,-546.443 591.749,-462.443 591.749,-462.443 591.749,-456.443 597.749,-450.443 603.749,-450.443"/>
<text text-anchor="middle" x="651.249" y="-543.243" font-family="Times,serif" font-size="14.00">SessionsController</text>
<polyline fill="none" stroke="black" points="591.749,-535.443 710.749,-535.443 "/>
<text text-anchor="start" x="599.749" y="-520.243" font-family="Times,serif" font-size="14.00">create</text>
<text text-anchor="start" x="599.749" y="-505.243" font-family="Times,serif" font-size="14.00">destroy</text>
<polyline fill="none" stroke="black" points="591.749,-497.443 710.749,-497.443 "/>
<polyline fill="none" stroke="black" points="591.749,-473.443 710.749,-473.443 "/>
<text text-anchor="start" x="599.749" y="-458.243" font-family="Times,serif" font-size="14.00">_layout</text>
</g>
<!-- ApplicationController&#45;&gt;SessionsController -->
<g id="edge7" class="edge"><title>ApplicationController&#45;&gt;SessionsController</title>
<path fill="none" stroke="black" d="M437.348,-495.611C484.493,-497.558 546.566,-500.121 591.694,-501.984"/>
</g>
<!-- PatientsController -->
<g id="node10" class="node"><title>PatientsController</title>
<path fill="none" stroke="black" d="M20.4118,-0.5C20.4118,-0.5 111.412,-0.5 111.412,-0.5 117.412,-0.5 123.412,-6.5 123.412,-12.5 123.412,-12.5 123.412,-231.5 123.412,-231.5 123.412,-237.5 117.412,-243.5 111.412,-243.5 111.412,-243.5 20.4118,-243.5 20.4118,-243.5 14.4118,-243.5 8.41183,-237.5 8.41183,-231.5 8.41183,-231.5 8.41183,-12.5 8.41183,-12.5 8.41183,-6.5 14.4118,-0.5 20.4118,-0.5"/>
<text text-anchor="middle" x="65.9118" y="-228.3" font-family="Times,serif" font-size="14.00">PatientsController</text>
<polyline fill="none" stroke="black" points="8.41183,-220.5 123.412,-220.5 "/>
<text text-anchor="start" x="16.4118" y="-205.3" font-family="Times,serif" font-size="14.00">create</text>
<text text-anchor="start" x="16.4118" y="-190.3" font-family="Times,serif" font-size="14.00">destroy</text>
<text text-anchor="start" x="16.4118" y="-175.3" font-family="Times,serif" font-size="14.00">edit</text>
<text text-anchor="start" x="16.4118" y="-160.3" font-family="Times,serif" font-size="14.00">init</text>
<text text-anchor="start" x="16.4118" y="-145.3" font-family="Times,serif" font-size="14.00">new</text>
<text text-anchor="start" x="16.4118" y="-130.3" font-family="Times,serif" font-size="14.00">set_init</text>
<text text-anchor="start" x="16.4118" y="-115.3" font-family="Times,serif" font-size="14.00">show</text>
<text text-anchor="start" x="16.4118" y="-100.3" font-family="Times,serif" font-size="14.00">update</text>
<polyline fill="none" stroke="black" points="8.41183,-92.5 123.412,-92.5 "/>
<polyline fill="none" stroke="black" points="8.41183,-68.5 123.412,-68.5 "/>
<text text-anchor="start" x="16.4118" y="-53.3" font-family="Times,serif" font-size="14.00">_layout</text>
<text text-anchor="start" x="16.4118" y="-38.3" font-family="Times,serif" font-size="14.00">init_params</text>
<text text-anchor="start" x="16.4118" y="-23.3" font-family="Times,serif" font-size="14.00">signup_params</text>
<text text-anchor="start" x="16.4118" y="-8.3" font-family="Times,serif" font-size="14.00">update_params</text>
</g>
<!-- ApplicationController&#45;&gt;PatientsController -->
<g id="edge8" class="edge"><title>ApplicationController&#45;&gt;PatientsController</title>
<path fill="none" stroke="black" d="M330.947,-446.205C278.714,-382.31 184.404,-266.946 123.512,-192.46"/>
</g>
<!-- PrescriptionCalendarController -->
<g id="node11" class="node"><title>PrescriptionCalendarController</title>
<path fill="none" stroke="black" d="M568.612,-116.696C568.612,-116.696 730.612,-116.696 730.612,-116.696 736.612,-116.696 742.612,-122.696 742.612,-128.696 742.612,-128.696 742.612,-197.696 742.612,-197.696 742.612,-203.696 736.612,-209.696 730.612,-209.696 730.612,-209.696 568.612,-209.696 568.612,-209.696 562.612,-209.696 556.612,-203.696 556.612,-197.696 556.612,-197.696 556.612,-128.696 556.612,-128.696 556.612,-122.696 562.612,-116.696 568.612,-116.696"/>
<text text-anchor="middle" x="649.612" y="-194.496" font-family="Times,serif" font-size="14.00">PrescriptionCalendarController</text>
<polyline fill="none" stroke="black" points="556.612,-186.696 742.612,-186.696 "/>
<text text-anchor="start" x="564.612" y="-171.496" font-family="Times,serif" font-size="14.00">edit</text>
<polyline fill="none" stroke="black" points="556.612,-163.696 742.612,-163.696 "/>
<polyline fill="none" stroke="black" points="556.612,-139.696 742.612,-139.696 "/>
<text text-anchor="start" x="564.612" y="-124.496" font-family="Times,serif" font-size="14.00">_layout</text>
</g>
<!-- ApplicationController&#45;&gt;PrescriptionCalendarController -->
<g id="edge9" class="edge"><title>ApplicationController&#45;&gt;PrescriptionCalendarController</title>
<path fill="none" stroke="black" d="M408.636,-446.267C462.035,-383.539 556.569,-272.491 609.981,-209.749"/>
</g>
<!-- WebConsole::ApplicationController -->
<g id="node12" class="node"><title>WebConsole::ApplicationController</title>
<path fill="none" stroke="black" d="M684,-624.5C684,-624.5 874,-624.5 874,-624.5 880,-624.5 886,-630.5 886,-636.5 886,-636.5 886,-721.5 886,-721.5 886,-727.5 880,-733.5 874,-733.5 874,-733.5 684,-733.5 684,-733.5 678,-733.5 672,-727.5 672,-721.5 672,-721.5 672,-636.5 672,-636.5 672,-630.5 678,-624.5 684,-624.5"/>
<text text-anchor="middle" x="779" y="-718.3" font-family="Times,serif" font-size="14.00">WebConsole::ApplicationController</text>
<polyline fill="none" stroke="black" points="672,-710.5 886,-710.5 "/>
<polyline fill="none" stroke="black" points="672,-686.5 886,-686.5 "/>
<polyline fill="none" stroke="black" points="672,-662.5 886,-662.5 "/>
<text text-anchor="start" x="680" y="-647.3" font-family="Times,serif" font-size="14.00">_layout</text>
<text text-anchor="start" x="680" y="-632.3" font-family="Times,serif" font-size="14.00">prevent_unauthorized_requests!</text>
</g>
<!-- WebConsole::ConsoleSessionsController -->
<g id="node13" class="node"><title>WebConsole::ConsoleSessionsController</title>
<path fill="none" stroke="black" d="M780,-288.5C780,-288.5 997,-288.5 997,-288.5 1003,-288.5 1009,-294.5 1009,-300.5 1009,-300.5 1009,-429.5 1009,-429.5 1009,-435.5 1003,-441.5 997,-441.5 997,-441.5 780,-441.5 780,-441.5 774,-441.5 768,-435.5 768,-429.5 768,-429.5 768,-300.5 768,-300.5 768,-294.5 774,-288.5 780,-288.5"/>
<text text-anchor="middle" x="888.5" y="-426.3" font-family="Times,serif" font-size="14.00">WebConsole::ConsoleSessionsController</text>
<polyline fill="none" stroke="black" points="768,-418.5 1009,-418.5 "/>
<text text-anchor="start" x="776" y="-403.3" font-family="Times,serif" font-size="14.00">configuration</text>
<text text-anchor="start" x="776" y="-388.3" font-family="Times,serif" font-size="14.00">index</text>
<text text-anchor="start" x="776" y="-373.3" font-family="Times,serif" font-size="14.00">input</text>
<text text-anchor="start" x="776" y="-358.3" font-family="Times,serif" font-size="14.00">pending_output</text>
<polyline fill="none" stroke="black" points="768,-350.5 1009,-350.5 "/>
<polyline fill="none" stroke="black" points="768,-326.5 1009,-326.5 "/>
<text text-anchor="start" x="776" y="-311.3" font-family="Times,serif" font-size="14.00">_layout</text>
<text text-anchor="start" x="776" y="-296.3" font-family="Times,serif" font-size="14.00">console_session_params</text>
</g>
</g>
</svg>
