<?xml version="1.0" encoding="UTF-8" standalone="no"?>
<!DOCTYPE svg PUBLIC "-//W3C//DTD SVG 1.1//EN"
 "http://www.w3.org/Graphics/SVG/1.1/DTD/svg11.dtd">
<!-- Generated by graphviz version 2.36.0 (20140111.2315)
 -->
<!-- Title: models_diagram Pages: 1 -->
<svg width="804pt" height="682pt"
 viewBox="0.00 0.00 804.00 682.00" xmlns="http://www.w3.org/2000/svg" xmlns:xlink="http://www.w3.org/1999/xlink">
<g id="graph0" class="graph" transform="scale(1 1) rotate(0) translate(4 678)">
<title>models_diagram</title>
<polygon fill="none" stroke="none" points="-4,4 -4,-678 800,-678 800,4 -4,4"/>
<!-- _diagram_info -->
<g id="node1" class="node"><title>_diagram_info</title>
<text text-anchor="start" x="8" y="-659.6" font-family="Times,serif" font-size="13.00">Models diagram</text>
<text text-anchor="start" x="8" y="-645.6" font-family="Times,serif" font-size="13.00">Date: Apr 24 2016 &#45; 15:14</text>
<text text-anchor="start" x="8" y="-631.6" font-family="Times,serif" font-size="13.00">Migration version: 20160420203038</text>
<text text-anchor="start" x="8" y="-617.6" font-family="Times,serif" font-size="13.00">Generated by RailRoady 1.4.2</text>
<text text-anchor="start" x="8" y="-603.6" font-family="Times,serif" font-size="13.00">http://railroady.prestonlee.com</text>
</g>
<!-- DrugPrescription -->
<g id="node2" class="node"><title>DrugPrescription</title>
<path fill="none" stroke="black" d="M147.5,-0.5C147.5,-0.5 254.5,-0.5 254.5,-0.5 260.5,-0.5 266.5,-6.5 266.5,-12.5 266.5,-12.5 266.5,-109.5 266.5,-109.5 266.5,-115.5 260.5,-121.5 254.5,-121.5 254.5,-121.5 147.5,-121.5 147.5,-121.5 141.5,-121.5 135.5,-115.5 135.5,-109.5 135.5,-109.5 135.5,-12.5 135.5,-12.5 135.5,-6.5 141.5,-0.5 147.5,-0.5"/>
<text text-anchor="middle" x="201" y="-106.3" font-family="Times,serif" font-size="14.00">DrugPrescription</text>
<polyline fill="none" stroke="black" points="135.5,-98.5 266.5,-98.5 "/>
<text text-anchor="start" x="143.5" y="-83.3" font-family="Times,serif" font-size="14.00">id :INTEGER</text>
<text text-anchor="start" x="143.5" y="-68.3" font-family="Times,serif" font-size="14.00">created_at :datetime</text>
<text text-anchor="start" x="143.5" y="-53.3" font-family="Times,serif" font-size="14.00">updated_at :datetime</text>
<text text-anchor="start" x="143.5" y="-38.3" font-family="Times,serif" font-size="14.00">date :date</text>
<text text-anchor="start" x="143.5" y="-23.3" font-family="Times,serif" font-size="14.00">dosage :decimal(3,1)</text>
<text text-anchor="start" x="143.5" y="-8.3" font-family="Times,serif" font-size="14.00">patient_id :integer</text>
</g>
<!-- Doctor -->
<g id="node3" class="node"><title>Doctor</title>
<path fill="none" stroke="black" d="M194.5,-423C194.5,-423 325.5,-423 325.5,-423 331.5,-423 337.5,-429 337.5,-435 337.5,-435 337.5,-547 337.5,-547 337.5,-553 331.5,-559 325.5,-559 325.5,-559 194.5,-559 194.5,-559 188.5,-559 182.5,-553 182.5,-547 182.5,-547 182.5,-435 182.5,-435 182.5,-429 188.5,-423 194.5,-423"/>
<text text-anchor="middle" x="260" y="-543.8" font-family="Times,serif" font-size="14.00">Doctor</text>
<polyline fill="none" stroke="black" points="182.5,-536 337.5,-536 "/>
<text text-anchor="start" x="190.5" y="-520.8" font-family="Times,serif" font-size="14.00">id :INTEGER</text>
<text text-anchor="start" x="190.5" y="-505.8" font-family="Times,serif" font-size="14.00">created_at :datetime</text>
<text text-anchor="start" x="190.5" y="-490.8" font-family="Times,serif" font-size="14.00">updated_at :datetime</text>
<text text-anchor="start" x="190.5" y="-475.8" font-family="Times,serif" font-size="14.00">name :varchar</text>
<text text-anchor="start" x="190.5" y="-460.8" font-family="Times,serif" font-size="14.00">surname :varchar</text>
<text text-anchor="start" x="190.5" y="-445.8" font-family="Times,serif" font-size="14.00">password_digest :varchar</text>
<text text-anchor="start" x="190.5" y="-430.8" font-family="Times,serif" font-size="14.00">email :varchar</text>
</g>
<!-- Patient -->
<g id="node5" class="node"><title>Patient</title>
<path fill="none" stroke="black" d="M212.5,-159C212.5,-159 345.5,-159 345.5,-159 351.5,-159 357.5,-165 357.5,-171 357.5,-171 357.5,-373 357.5,-373 357.5,-379 351.5,-385 345.5,-385 345.5,-385 212.5,-385 212.5,-385 206.5,-385 200.5,-379 200.5,-373 200.5,-373 200.5,-171 200.5,-171 200.5,-165 206.5,-159 212.5,-159"/>
<text text-anchor="middle" x="279" y="-369.8" font-family="Times,serif" font-size="14.00">Patient</text>
<polyline fill="none" stroke="black" points="200.5,-362 357.5,-362 "/>
<text text-anchor="start" x="208.5" y="-346.8" font-family="Times,serif" font-size="14.00">id :INTEGER</text>
<text text-anchor="start" x="208.5" y="-331.8" font-family="Times,serif" font-size="14.00">created_at :datetime</text>
<text text-anchor="start" x="208.5" y="-316.8" font-family="Times,serif" font-size="14.00">updated_at :datetime</text>
<text text-anchor="start" x="208.5" y="-301.8" font-family="Times,serif" font-size="14.00">name :varchar</text>
<text text-anchor="start" x="208.5" y="-286.8" font-family="Times,serif" font-size="14.00">surname :varchar</text>
<text text-anchor="start" x="208.5" y="-271.8" font-family="Times,serif" font-size="14.00">password_digest :varchar</text>
<text text-anchor="start" x="208.5" y="-256.8" font-family="Times,serif" font-size="14.00">birthdate :varchar</text>
<text text-anchor="start" x="208.5" y="-241.8" font-family="Times,serif" font-size="14.00">email :varchar</text>
<text text-anchor="start" x="208.5" y="-226.8" font-family="Times,serif" font-size="14.00">doctor_id :integer</text>
<text text-anchor="start" x="208.5" y="-211.8" font-family="Times,serif" font-size="14.00">risk :integer</text>
<text text-anchor="start" x="208.5" y="-196.8" font-family="Times,serif" font-size="14.00">desired_inr :integer</text>
<text text-anchor="start" x="208.5" y="-181.8" font-family="Times,serif" font-size="14.00">initial_dose :decimal(3,1)</text>
<text text-anchor="start" x="208.5" y="-166.8" font-family="Times,serif" font-size="14.00">therapy_state :integer</text>
</g>
<!-- Doctor&#45;&gt;Patient -->
<g id="edge2" class="edge"><title>Doctor&#45;&gt;Patient</title>
<path fill="none" stroke="#337f5a" d="M266.603,-414.591C267.148,-408.364 267.707,-401.976 268.272,-395.52"/>
<ellipse fill="none" stroke="#337f5a" cx="266.231" cy="-418.841" rx="4" ry="4"/>
<polygon fill="#337f5a" stroke="#337f5a" points="268.292,-395.295 273.647,-385.726 268.728,-390.315 269.164,-385.334 269.164,-385.334 269.164,-385.334 268.728,-390.315 264.681,-384.941 268.292,-395.295 268.292,-395.295"/>
</g>
<!-- DrugInr -->
<g id="node4" class="node"><title>DrugInr</title>
<polygon fill="none" stroke="black" points="432,-468 432,-514 492,-514 492,-468 432,-468"/>
<text text-anchor="middle" x="462" y="-498.8" font-family="Times,serif" font-size="14.00">DrugInr</text>
<polyline fill="none" stroke="black" points="432,-491 492,-491 "/>
<text text-anchor="middle" x="462" y="-475.8" font-family="Times,serif" font-size="14.00"> </text>
</g>
<!-- Patient&#45;&gt;DrugPrescription -->
<g id="edge6" class="edge"><title>Patient&#45;&gt;DrugPrescription</title>
<path fill="none" stroke="#05a685" d="M234.248,-151.088C231.772,-144.453 229.327,-137.903 226.955,-131.547"/>
<ellipse fill="none" stroke="#05a685" cx="235.747" cy="-155.105" rx="4.00001" ry="4.00001"/>
<polygon fill="#05a685" stroke="#05a685" points="226.79,-131.105 227.51,-120.162 225.042,-126.42 223.294,-121.736 223.294,-121.736 223.294,-121.736 225.042,-126.42 219.078,-123.309 226.79,-131.105 226.79,-131.105"/>
</g>
<!-- InrRecord -->
<g id="node7" class="node"><title>InrRecord</title>
<path fill="none" stroke="black" d="M319.5,-0.5C319.5,-0.5 440.5,-0.5 440.5,-0.5 446.5,-0.5 452.5,-6.5 452.5,-12.5 452.5,-12.5 452.5,-109.5 452.5,-109.5 452.5,-115.5 446.5,-121.5 440.5,-121.5 440.5,-121.5 319.5,-121.5 319.5,-121.5 313.5,-121.5 307.5,-115.5 307.5,-109.5 307.5,-109.5 307.5,-12.5 307.5,-12.5 307.5,-6.5 313.5,-0.5 319.5,-0.5"/>
<text text-anchor="middle" x="380" y="-106.3" font-family="Times,serif" font-size="14.00">InrRecord</text>
<polyline fill="none" stroke="black" points="307.5,-98.5 452.5,-98.5 "/>
<text text-anchor="start" x="315.5" y="-83.3" font-family="Times,serif" font-size="14.00">id :INTEGER</text>
<text text-anchor="start" x="315.5" y="-68.3" font-family="Times,serif" font-size="14.00">created_at :datetime</text>
<text text-anchor="start" x="315.5" y="-53.3" font-family="Times,serif" font-size="14.00">updated_at :datetime</text>
<text text-anchor="start" x="315.5" y="-38.3" font-family="Times,serif" font-size="14.00">date :date</text>
<text text-anchor="start" x="315.5" y="-23.3" font-family="Times,serif" font-size="14.00">inr_value :decimal(3,1)</text>
<text text-anchor="start" x="315.5" y="-8.3" font-family="Times,serif" font-size="14.00">patient_id :integer</text>
</g>
<!-- Patient&#45;&gt;InrRecord -->
<g id="edge5" class="edge"><title>Patient&#45;&gt;InrRecord</title>
<path fill="none" stroke="#eccd1d" d="M336.804,-151.386C340.12,-144.523 343.394,-137.75 346.565,-131.187"/>
<ellipse fill="none" stroke="#eccd1d" cx="334.936" cy="-155.251" rx="4.00002" ry="4.00002"/>
<polygon fill="#eccd1d" stroke="#eccd1d" points="346.781,-130.74 355.184,-123.694 348.957,-126.238 351.132,-121.736 351.132,-121.736 351.132,-121.736 348.957,-126.238 347.081,-119.778 346.781,-130.74 346.781,-130.74"/>
</g>
<!-- DoseAdvisor -->
<g id="node6" class="node"><title>DoseAdvisor</title>
<polygon fill="none" stroke="black" points="510,-468 510,-514 598,-514 598,-468 510,-468"/>
<text text-anchor="middle" x="554" y="-498.8" font-family="Times,serif" font-size="14.00">DoseAdvisor</text>
<polyline fill="none" stroke="black" points="510,-491 598,-491 "/>
<text text-anchor="middle" x="554" y="-475.8" font-family="Times,serif" font-size="14.00"> </text>
</g>
<!-- WebConsole::ConsoleSession -->
<g id="node8" class="node"><title>WebConsole::ConsoleSession</title>
<polygon fill="none" stroke="black" points="616,-468 616,-514 796,-514 796,-468 616,-468"/>
<text text-anchor="middle" x="706" y="-498.8" font-family="Times,serif" font-size="14.00">WebConsole::ConsoleSession</text>
<polyline fill="none" stroke="black" points="616,-491 796,-491 "/>
<text text-anchor="middle" x="706" y="-475.8" font-family="Times,serif" font-size="14.00"> </text>
</g>
<!-- ActiveRecord::Base -->
<g id="node9" class="node"><title>ActiveRecord::Base</title>
<ellipse fill="none" stroke="black" cx="313" cy="-635" rx="81.3646" ry="18"/>
<text text-anchor="middle" x="313" y="-631.3" font-family="Times,serif" font-size="14.00">ActiveRecord::Base</text>
</g>
<!-- ActiveRecord::Base&#45;&gt;DrugPrescription -->
<g id="edge1" class="edge"><title>ActiveRecord::Base&#45;&gt;DrugPrescription</title>
<path fill="none" stroke="black" d="M274.883,-619.11C237.503,-603.641 184.493,-579.074 173,-560 89.6521,-421.67 142.605,-220.585 177.5,-121.598"/>
</g>
<!-- ActiveRecord::Base&#45;&gt;Doctor -->
<g id="edge3" class="edge"><title>ActiveRecord::Base&#45;&gt;Doctor</title>
<path fill="none" stroke="black" d="M306.607,-616.871C301.183,-602.34 293.033,-580.504 285.058,-559.136"/>
</g>
<!-- ActiveRecord::Base&#45;&gt;Patient -->
<g id="edge7" class="edge"><title>ActiveRecord::Base&#45;&gt;Patient</title>
<path fill="none" stroke="black" d="M323.028,-617.06C331.032,-602.497 341.607,-580.638 346,-560 358.77,-500.011 358.863,-481.969 346,-422 343.383,-409.798 339.686,-397.389 335.358,-385.204"/>
</g>
<!-- ActiveRecord::Base&#45;&gt;InrRecord -->
<g id="edge9" class="edge"><title>ActiveRecord::Base&#45;&gt;InrRecord</title>
<path fill="none" stroke="black" d="M328.72,-617.314C340.866,-603.241 356.785,-581.936 364,-560 413.799,-408.598 400.203,-217.165 388.67,-121.751"/>
</g>
<!-- Object -->
<g id="node10" class="node"><title>Object</title>
<ellipse fill="none" stroke="black" cx="554" cy="-635" rx="34.1708" ry="18"/>
<text text-anchor="middle" x="554" y="-631.3" font-family="Times,serif" font-size="14.00">Object</text>
</g>
<!-- Object&#45;&gt;DrugInr -->
<g id="edge4" class="edge"><title>Object&#45;&gt;DrugInr</title>
<path fill="none" stroke="black" d="M541.729,-617.869C530.663,-603.094 514.155,-580.473 501,-560 491.362,-545.001 481.376,-527.547 473.921,-514.077"/>
</g>
<!-- Object&#45;&gt;DoseAdvisor -->
<g id="edge8" class="edge"><title>Object&#45;&gt;DoseAdvisor</title>
<path fill="none" stroke="black" d="M554,-616.871C554,-591.201 554,-542.739 554,-514.327"/>
</g>
<!-- Object&#45;&gt;WebConsole::ConsoleSession -->
<g id="edge10" class="edge"><title>Object&#45;&gt;WebConsole::ConsoleSession</title>
<path fill="none" stroke="black" d="M569.979,-619.072C596.809,-594.007 651.039,-543.345 682.313,-514.129"/>
</g>
</g>
</svg>
