<?xml version="1.0" encoding="UTF-8" standalone="no"?>
<!DOCTYPE svg PUBLIC "-//W3C//DTD SVG 1.1//EN"
 "http://www.w3.org/Graphics/SVG/1.1/DTD/svg11.dtd">
<!-- Generated by graphviz version 2.36.0 (20140111.2315)
 -->
<!-- Title: models_diagram Pages: 1 -->
<svg width="782pt" height="302pt"
 viewBox="0.00 0.00 782.00 302.00" xmlns="http://www.w3.org/2000/svg" xmlns:xlink="http://www.w3.org/1999/xlink">
<g id="graph0" class="graph" transform="scale(1 1) rotate(0) translate(4 298)">
<title>models_diagram</title>
<polygon fill="none" stroke="none" points="-4,4 -4,-298 778,-298 778,4 -4,4"/>
<!-- _diagram_info -->
<g id="node1" class="node"><title>_diagram_info</title>
<text text-anchor="start" x="8" y="-279.6" font-family="Times,serif" font-size="13.00">Models diagram</text>
<text text-anchor="start" x="8" y="-265.6" font-family="Times,serif" font-size="13.00">Date: Apr 24 2016 &#45; 15:14</text>
<text text-anchor="start" x="8" y="-251.6" font-family="Times,serif" font-size="13.00">Migration version: 20160420203038</text>
<text text-anchor="start" x="8" y="-237.6" font-family="Times,serif" font-size="13.00">Generated by RailRoady 1.4.2</text>
<text text-anchor="start" x="8" y="-223.6" font-family="Times,serif" font-size="13.00">http://railroady.prestonlee.com</text>
</g>
<!-- DrugPrescription -->
<g id="node2" class="node"><title>DrugPrescription</title>
<ellipse fill="none" stroke="black" cx="232" cy="-18" rx="71.2405" ry="18"/>
<text text-anchor="middle" x="232" y="-14.3" font-family="Times,serif" font-size="14.00">DrugPrescription</text>
</g>
<!-- Doctor -->
<g id="node3" class="node"><title>Doctor</title>
<ellipse fill="none" stroke="black" cx="281" cy="-162" rx="35.1455" ry="18"/>
<text text-anchor="middle" x="281" y="-158.3" font-family="Times,serif" font-size="14.00">Doctor</text>
</g>
<!-- Patient -->
<g id="node5" class="node"><title>Patient</title>
<ellipse fill="none" stroke="black" cx="300" cy="-90" rx="35.1455" ry="18"/>
<text text-anchor="middle" x="300" y="-86.3" font-family="Times,serif" font-size="14.00">Patient</text>
</g>
<!-- Doctor&#45;&gt;Patient -->
<g id="edge2" class="edge"><title>Doctor&#45;&gt;Patient</title>
<path fill="none" stroke="#812709" d="M287.713,-136.267C289.322,-130.34 291.048,-123.981 292.683,-117.959"/>
<ellipse fill="none" stroke="#812709" cx="286.647" cy="-140.195" rx="4.00001" ry="4.00001"/>
<polygon fill="#812709" stroke="#812709" points="292.691,-117.926 299.654,-109.454 294.001,-113.101 295.311,-108.275 295.311,-108.275 295.311,-108.275 294.001,-113.101 290.968,-107.096 292.691,-117.926 292.691,-117.926"/>
</g>
<!-- DrugInr -->
<g id="node4" class="node"><title>DrugInr</title>
<polygon fill="none" stroke="black" points="469.5,-180 410.5,-180 410.5,-144 469.5,-144 469.5,-180"/>
<text text-anchor="middle" x="440" y="-158.3" font-family="Times,serif" font-size="14.00">DrugInr</text>
</g>
<!-- Patient&#45;&gt;DrugPrescription -->
<g id="edge6" class="edge"><title>Patient&#45;&gt;DrugPrescription</title>
<path fill="none" stroke="#d853a8" d="M279.324,-67.7155C271.906,-60.0799 263.484,-51.4098 255.821,-43.5218"/>
<ellipse fill="none" stroke="#d853a8" cx="282.121" cy="-70.5956" rx="4.00002" ry="4.00002"/>
<polygon fill="#d853a8" stroke="#d853a8" points="255.445,-43.1346 251.705,-32.8262 251.961,-39.5482 248.477,-35.9618 248.477,-35.9618 248.477,-35.9618 251.961,-39.5482 245.249,-39.0973 255.445,-43.1346 255.445,-43.1346"/>
</g>
<!-- InrRecord -->
<g id="node7" class="node"><title>InrRecord</title>
<ellipse fill="none" stroke="black" cx="375" cy="-18" rx="46.2191" ry="18"/>
<text text-anchor="middle" x="375" y="-14.3" font-family="Times,serif" font-size="14.00">InrRecord</text>
</g>
<!-- Patient&#45;&gt;InrRecord -->
<g id="edge5" class="edge"><title>Patient&#45;&gt;InrRecord</title>
<path fill="none" stroke="#b404ad" d="M322.349,-68.1406C331.267,-59.8177 341.558,-50.2125 350.663,-41.7141"/>
<ellipse fill="none" stroke="#b404ad" cx="319.198" cy="-71.0818" rx="4.00002" ry="4.00002"/>
<polygon fill="#b404ad" stroke="#b404ad" points="350.666,-41.7114 361.047,-38.1779 354.322,-38.2998 357.977,-34.8882 357.977,-34.8882 357.977,-34.8882 354.322,-38.2998 354.906,-31.5984 350.666,-41.7114 350.666,-41.7114"/>
</g>
<!-- DoseAdvisor -->
<g id="node6" class="node"><title>DoseAdvisor</title>
<polygon fill="none" stroke="black" points="575.5,-180 488.5,-180 488.5,-144 575.5,-144 575.5,-180"/>
<text text-anchor="middle" x="532" y="-158.3" font-family="Times,serif" font-size="14.00">DoseAdvisor</text>
</g>
<!-- WebConsole::ConsoleSession -->
<g id="node8" class="node"><title>WebConsole::ConsoleSession</title>
<polygon fill="none" stroke="black" points="774,-180 594,-180 594,-144 774,-144 774,-180"/>
<text text-anchor="middle" x="684" y="-158.3" font-family="Times,serif" font-size="14.00">WebConsole::ConsoleSession</text>
</g>
<!-- ActiveRecord::Base -->
<g id="node9" class="node"><title>ActiveRecord::Base</title>
<ellipse fill="none" stroke="black" cx="313" cy="-255" rx="81.3646" ry="18"/>
<text text-anchor="middle" x="313" y="-251.3" font-family="Times,serif" font-size="14.00">ActiveRecord::Base</text>
</g>
<!-- ActiveRecord::Base&#45;&gt;DrugPrescription -->
<g id="edge1" class="edge"><title>ActiveRecord::Base&#45;&gt;DrugPrescription</title>
<path fill="none" stroke="black" d="M288.226,-237.837C270.4,-224.649 247.689,-204.269 237,-180 215.695,-131.63 223.123,-66.927 228.47,-36.372"/>
</g>
<!-- ActiveRecord::Base&#45;&gt;Doctor -->
<g id="edge3" class="edge"><title>ActiveRecord::Base&#45;&gt;Doctor</title>
<path fill="none" stroke="black" d="M306.981,-236.884C301.26,-220.614 292.704,-196.284 286.992,-180.04"/>
</g>
<!-- ActiveRecord::Base&#45;&gt;Patient -->
<g id="edge7" class="edge"><title>ActiveRecord::Base&#45;&gt;Patient</title>
<path fill="none" stroke="black" d="M318.257,-237.036C324.231,-215.264 332.265,-176.43 325,-144 322.109,-131.094 315.707,-117.628 310.106,-107.5"/>
</g>
<!-- ActiveRecord::Base&#45;&gt;InrRecord -->
<g id="edge9" class="edge"><title>ActiveRecord::Base&#45;&gt;InrRecord</title>
<path fill="none" stroke="black" d="M320.001,-236.876C325.893,-222.017 334.254,-199.835 340,-180 354.962,-128.348 366.825,-65.7312 372.071,-36.1108"/>
</g>
<!-- Object -->
<g id="node10" class="node"><title>Object</title>
<ellipse fill="none" stroke="black" cx="532" cy="-255" rx="34.1708" ry="18"/>
<text text-anchor="middle" x="532" y="-251.3" font-family="Times,serif" font-size="14.00">Object</text>
</g>
<!-- Object&#45;&gt;DrugInr -->
<g id="edge4" class="edge"><title>Object&#45;&gt;DrugInr</title>
<path fill="none" stroke="black" d="M516.393,-238.563C499.988,-222.336 474.249,-196.876 457.251,-180.063"/>
</g>
<!-- Object&#45;&gt;DoseAdvisor -->
<g id="edge8" class="edge"><title>Object&#45;&gt;DoseAdvisor</title>
<path fill="none" stroke="black" d="M532,-236.884C532,-220.614 532,-196.284 532,-180.04"/>
</g>
<!-- Object&#45;&gt;WebConsole::ConsoleSession -->
<g id="edge10" class="edge"><title>Object&#45;&gt;WebConsole::ConsoleSession</title>
<path fill="none" stroke="black" d="M553.778,-240.962C580.539,-224.941 626.015,-197.715 655.524,-180.048"/>
</g>
</g>
</svg>
